<mxfile host="app.diagrams.net" modified="2024-04-29T09:39:10.618Z" agent="Mozilla/5.0 (Windows NT 10.0; Win64; x64) AppleWebKit/537.36 (KHTML, like Gecko) Chrome/124.0.0.0 Safari/537.36" etag="2JdNXH81JxXapU7cmHGi" version="24.3.1" type="github">
  <diagram name="Page-1" id="74e2e168-ea6b-b213-b513-2b3c1d86103e">
    <mxGraphModel dx="3490" dy="1977" grid="1" gridSize="10" guides="1" tooltips="1" connect="1" arrows="1" fold="1" page="1" pageScale="1" pageWidth="1100" pageHeight="850" background="none" math="0" shadow="0">
      <root>
        <mxCell id="0" />
        <mxCell id="1" parent="0" />
        <mxCell id="y9S3NXdiilQCgTe4i54k-65" value="" style="rounded=0;whiteSpace=wrap;html=1;" parent="1" vertex="1">
          <mxGeometry x="-490" y="690" width="140" height="60" as="geometry" />
        </mxCell>
        <mxCell id="y9S3NXdiilQCgTe4i54k-66" value="" style="rounded=0;whiteSpace=wrap;html=1;" parent="1" vertex="1">
          <mxGeometry x="350" y="1130" width="140" height="60" as="geometry" />
        </mxCell>
        <mxCell id="lvfCB4eY2tcOJgBGcnWr-17" value="전체 업무 프로세스" style="swimlane;html=1;childLayout=stackLayout;startSize=20;rounded=0;shadow=0;labelBackgroundColor=none;strokeWidth=1;fontFamily=Verdana;fontSize=8;align=center;strokeColor=#FF0000;" vertex="1" parent="1">
          <mxGeometry x="-139" y="-220" width="2340" height="1050" as="geometry" />
        </mxCell>
        <mxCell id="lvfCB4eY2tcOJgBGcnWr-18" value="1" style="swimlane;html=1;startSize=20;" vertex="1" parent="lvfCB4eY2tcOJgBGcnWr-17">
          <mxGeometry y="20" width="200" height="1030" as="geometry" />
        </mxCell>
        <mxCell id="lvfCB4eY2tcOJgBGcnWr-19" value="11" style="rounded=0;whiteSpace=wrap;html=1;align=left;" vertex="1" parent="lvfCB4eY2tcOJgBGcnWr-18">
          <mxGeometry x="6.5" y="145" width="187" height="130" as="geometry" />
        </mxCell>
        <mxCell id="lvfCB4eY2tcOJgBGcnWr-20" value="펌프, 용기" style="swimlane;html=1;startSize=20;" vertex="1" parent="lvfCB4eY2tcOJgBGcnWr-17">
          <mxGeometry x="200" y="20" width="200" height="1030" as="geometry" />
        </mxCell>
        <mxCell id="lvfCB4eY2tcOJgBGcnWr-21" value="&lt;div&gt;&lt;font face=&quot;Verdana&quot;&gt;&lt;span style=&quot;font-size: 8px;&quot;&gt;1&lt;/span&gt;&lt;/font&gt;&lt;/div&gt;" style="rounded=0;whiteSpace=wrap;html=1;align=left;" vertex="1" parent="lvfCB4eY2tcOJgBGcnWr-20">
          <mxGeometry x="6.5" y="420" width="187" height="130" as="geometry" />
        </mxCell>
        <mxCell id="lvfCB4eY2tcOJgBGcnWr-22" value="청운, 하이큐" style="swimlane;html=1;startSize=20;" vertex="1" parent="lvfCB4eY2tcOJgBGcnWr-17">
          <mxGeometry x="400" y="20" width="200" height="1030" as="geometry" />
        </mxCell>
        <mxCell id="lvfCB4eY2tcOJgBGcnWr-23" value="&lt;div&gt;&lt;font face=&quot;Verdana&quot;&gt;&lt;span style=&quot;font-size: 8px;&quot;&gt;111&lt;/span&gt;&lt;/font&gt;&lt;/div&gt;" style="rounded=0;whiteSpace=wrap;html=1;align=left;" vertex="1" parent="lvfCB4eY2tcOJgBGcnWr-22">
          <mxGeometry x="6.5" y="303" width="187" height="130" as="geometry" />
        </mxCell>
        <mxCell id="lvfCB4eY2tcOJgBGcnWr-24" value="생산관리팀-계획파트" style="swimlane;html=1;startSize=20;" vertex="1" parent="lvfCB4eY2tcOJgBGcnWr-17">
          <mxGeometry x="600" y="20" width="200" height="1030" as="geometry" />
        </mxCell>
        <mxCell id="lvfCB4eY2tcOJgBGcnWr-25" value="" style="edgeStyle=orthogonalEdgeStyle;rounded=0;orthogonalLoop=1;jettySize=auto;html=1;" edge="1" parent="lvfCB4eY2tcOJgBGcnWr-24" source="lvfCB4eY2tcOJgBGcnWr-26" target="lvfCB4eY2tcOJgBGcnWr-27">
          <mxGeometry relative="1" as="geometry" />
        </mxCell>
        <mxCell id="lvfCB4eY2tcOJgBGcnWr-26" value="&lt;div&gt;&lt;font face=&quot;Verdana&quot;&gt;&lt;span style=&quot;font-size: 8px;&quot;&gt;생산계획 생성 프로세스&lt;/span&gt;&lt;/font&gt;&lt;/div&gt;&lt;div&gt;&lt;font face=&quot;Verdana&quot;&gt;&lt;span style=&quot;font-size: 8px;&quot;&gt;1. 수주정보 list up&lt;/span&gt;&lt;/font&gt;&lt;/div&gt;&lt;div&gt;&lt;font face=&quot;Verdana&quot;&gt;&lt;span style=&quot;font-size: 8px;&quot;&gt;2. 완제품 기준 생산파트 구분&lt;/span&gt;&lt;/font&gt;&lt;/div&gt;&lt;div&gt;&lt;font face=&quot;Verdana&quot;&gt;&lt;span style=&quot;font-size: 8px;&quot;&gt;3. 각 파트 담당 수주대장 list up&lt;/span&gt;&lt;/font&gt;&lt;/div&gt;&lt;div&gt;&lt;font face=&quot;Verdana&quot;&gt;&lt;span style=&quot;font-size: 8px;&quot;&gt;(&lt;/span&gt;&lt;/font&gt;&lt;span style=&quot;font-size: 8px; font-family: Verdana; background-color: initial;&quot;&gt;생산계획 스케줄 파일에 팀별 스케줄 작성)&lt;/span&gt;&lt;/div&gt;" style="rounded=0;whiteSpace=wrap;html=1;align=left;" vertex="1" parent="lvfCB4eY2tcOJgBGcnWr-24">
          <mxGeometry x="6.5" y="145" width="187" height="130" as="geometry" />
        </mxCell>
        <mxCell id="lvfCB4eY2tcOJgBGcnWr-27" value="청운, 하이큐?" style="rhombus;whiteSpace=wrap;html=1;rounded=0;shadow=0;labelBackgroundColor=none;strokeWidth=1;fontFamily=Verdana;fontSize=8;align=center;" vertex="1" parent="lvfCB4eY2tcOJgBGcnWr-24">
          <mxGeometry x="60" y="338" width="80" height="60" as="geometry" />
        </mxCell>
        <mxCell id="lvfCB4eY2tcOJgBGcnWr-28" value="생산관리팀-조달파트" style="swimlane;html=1;startSize=20;" vertex="1" parent="lvfCB4eY2tcOJgBGcnWr-17">
          <mxGeometry x="800" y="20" width="230" height="1030" as="geometry" />
        </mxCell>
        <mxCell id="lvfCB4eY2tcOJgBGcnWr-29" value="&lt;span style=&quot;font-family: Verdana; font-size: 8px;&quot;&gt;협력사 납기일 협의 프로세스&lt;br&gt;&lt;/span&gt;" style="rounded=0;whiteSpace=wrap;html=1;" vertex="1" parent="lvfCB4eY2tcOJgBGcnWr-28">
          <mxGeometry x="51" y="551" width="120" height="60" as="geometry" />
        </mxCell>
        <mxCell id="lvfCB4eY2tcOJgBGcnWr-30" value="&lt;span style=&quot;color: rgb(0, 0, 0); font-family: Verdana; font-size: 8px; font-style: normal; font-variant-ligatures: normal; font-variant-caps: normal; font-weight: 400; letter-spacing: normal; orphans: 2; text-align: center; text-indent: 0px; text-transform: none; widows: 2; word-spacing: 0px; -webkit-text-stroke-width: 0px; white-space: normal; background-color: rgb(251, 251, 251); text-decoration-thickness: initial; text-decoration-style: initial; text-decoration-color: initial; display: inline !important; float: none;&quot;&gt;납품일자 확정?&lt;/span&gt;" style="rhombus;whiteSpace=wrap;html=1;rounded=0;shadow=0;labelBackgroundColor=none;strokeWidth=1;fontFamily=Verdana;fontSize=8;align=center;" vertex="1" parent="lvfCB4eY2tcOJgBGcnWr-28">
          <mxGeometry x="71" y="630" width="80" height="60" as="geometry" />
        </mxCell>
        <mxCell id="lvfCB4eY2tcOJgBGcnWr-31" style="edgeStyle=orthogonalEdgeStyle;rounded=1;html=1;labelBackgroundColor=none;startArrow=none;startFill=0;startSize=5;endArrow=classicThin;endFill=1;endSize=5;jettySize=auto;orthogonalLoop=1;strokeWidth=1;fontFamily=Verdana;fontSize=8;exitX=0.5;exitY=1;exitDx=0;exitDy=0;entryX=0.5;entryY=0;entryDx=0;entryDy=0;" edge="1" parent="lvfCB4eY2tcOJgBGcnWr-28" source="lvfCB4eY2tcOJgBGcnWr-29" target="lvfCB4eY2tcOJgBGcnWr-30">
          <mxGeometry relative="1" as="geometry">
            <mxPoint x="120" y="493" as="sourcePoint" />
            <mxPoint x="190" y="498" as="targetPoint" />
          </mxGeometry>
        </mxCell>
        <mxCell id="lvfCB4eY2tcOJgBGcnWr-32" value="&lt;div&gt;외주SCM납기정보등록&lt;/div&gt;&lt;div&gt;(구매팀)&lt;/div&gt;" style="rounded=1;whiteSpace=wrap;html=1;shadow=0;labelBackgroundColor=none;strokeWidth=1;fontFamily=Verdana;fontSize=8;align=center;" vertex="1" parent="lvfCB4eY2tcOJgBGcnWr-28">
          <mxGeometry x="61" y="713" width="100" height="60" as="geometry" />
        </mxCell>
        <mxCell id="lvfCB4eY2tcOJgBGcnWr-33" style="edgeStyle=orthogonalEdgeStyle;rounded=1;html=1;labelBackgroundColor=none;startArrow=none;startFill=0;startSize=5;endArrow=classicThin;endFill=1;endSize=5;jettySize=auto;orthogonalLoop=1;strokeWidth=1;fontFamily=Verdana;fontSize=8;entryX=0.5;entryY=0;entryDx=0;entryDy=0;exitX=0.5;exitY=1;exitDx=0;exitDy=0;strokeColor=#66B2FF;" edge="1" parent="lvfCB4eY2tcOJgBGcnWr-28" source="lvfCB4eY2tcOJgBGcnWr-30" target="lvfCB4eY2tcOJgBGcnWr-32">
          <mxGeometry relative="1" as="geometry">
            <mxPoint x="211" y="573" as="sourcePoint" />
            <mxPoint x="191" y="488" as="targetPoint" />
          </mxGeometry>
        </mxCell>
        <mxCell id="lvfCB4eY2tcOJgBGcnWr-34" value="YES" style="edgeLabel;html=1;align=center;verticalAlign=middle;resizable=0;points=[];" vertex="1" connectable="0" parent="lvfCB4eY2tcOJgBGcnWr-33">
          <mxGeometry x="0.1991" y="-2" relative="1" as="geometry">
            <mxPoint x="2" y="-3" as="offset" />
          </mxGeometry>
        </mxCell>
        <mxCell id="lvfCB4eY2tcOJgBGcnWr-35" style="edgeStyle=orthogonalEdgeStyle;rounded=0;orthogonalLoop=1;jettySize=auto;html=1;entryX=0.5;entryY=0;entryDx=0;entryDy=0;" edge="1" parent="lvfCB4eY2tcOJgBGcnWr-28" source="lvfCB4eY2tcOJgBGcnWr-36" target="lvfCB4eY2tcOJgBGcnWr-37">
          <mxGeometry relative="1" as="geometry" />
        </mxCell>
        <mxCell id="lvfCB4eY2tcOJgBGcnWr-36" value="&lt;font style=&quot;font-size: 8px;&quot;&gt;자재사용 승인&amp;nbsp;&lt;/font&gt;&lt;div style=&quot;font-size: 8px;&quot;&gt;&lt;font style=&quot;font-size: 8px;&quot;&gt;처리&amp;nbsp;&lt;span style=&quot;background-color: initial;&quot;&gt;프로세스&lt;/span&gt;&lt;/font&gt;&lt;/div&gt;" style="rounded=0;whiteSpace=wrap;html=1;" vertex="1" parent="lvfCB4eY2tcOJgBGcnWr-28">
          <mxGeometry x="47" y="798" width="140" height="60" as="geometry" />
        </mxCell>
        <mxCell id="lvfCB4eY2tcOJgBGcnWr-37" value="자재사용 승인" style="rhombus;whiteSpace=wrap;html=1;rounded=0;shadow=0;labelBackgroundColor=none;strokeWidth=1;fontFamily=Verdana;fontSize=8;align=center;" vertex="1" parent="lvfCB4eY2tcOJgBGcnWr-28">
          <mxGeometry x="77" y="918" width="80" height="60" as="geometry" />
        </mxCell>
        <mxCell id="lvfCB4eY2tcOJgBGcnWr-38" value="YES" style="edgeStyle=orthogonalEdgeStyle;rounded=0;orthogonalLoop=1;jettySize=auto;html=1;strokeColor=#66B2FF;" edge="1" parent="lvfCB4eY2tcOJgBGcnWr-28" source="lvfCB4eY2tcOJgBGcnWr-39" target="lvfCB4eY2tcOJgBGcnWr-29">
          <mxGeometry relative="1" as="geometry" />
        </mxCell>
        <mxCell id="lvfCB4eY2tcOJgBGcnWr-39" value="발주 확정?" style="rhombus;whiteSpace=wrap;html=1;rounded=0;shadow=0;labelBackgroundColor=none;strokeWidth=1;fontFamily=Verdana;fontSize=8;align=center;" vertex="1" parent="lvfCB4eY2tcOJgBGcnWr-28">
          <mxGeometry x="71" y="440" width="80" height="60" as="geometry" />
        </mxCell>
        <mxCell id="lvfCB4eY2tcOJgBGcnWr-40" value="" style="edgeStyle=orthogonalEdgeStyle;rounded=0;orthogonalLoop=1;jettySize=auto;html=1;" edge="1" parent="lvfCB4eY2tcOJgBGcnWr-28" source="lvfCB4eY2tcOJgBGcnWr-41" target="lvfCB4eY2tcOJgBGcnWr-39">
          <mxGeometry relative="1" as="geometry" />
        </mxCell>
        <mxCell id="lvfCB4eY2tcOJgBGcnWr-41" value="&lt;div&gt;&lt;font face=&quot;Verdana&quot;&gt;&lt;span style=&quot;font-size: 8px;&quot;&gt;발주 프로세스&lt;/span&gt;&lt;/font&gt;&lt;span style=&quot;font-size: 8px; font-family: Verdana; background-color: initial;&quot;&gt;(외주계획조회_yw)&lt;br&gt;1. 사출팀, 후가공팀 발주 워크센터 변경&lt;/span&gt;&lt;/div&gt;&lt;div&gt;&lt;span style=&quot;font-size: 8px; font-family: Verdana; background-color: initial;&quot;&gt;2. 발주수량 입력(구매로스 계산기 사용)&lt;/span&gt;&lt;/div&gt;&lt;div&gt;&lt;span style=&quot;font-size: 8px; font-family: Verdana; background-color: initial;&quot;&gt;3. 비고 특이사항 확인(생산계획입력yw)&lt;/span&gt;&lt;/div&gt;&lt;div&gt;&lt;span style=&quot;font-size: 8px; font-family: Verdana; background-color: initial;&quot;&gt;4. 조달담당자 발주 확정처리(외주발주품목조회)&lt;/span&gt;&lt;/div&gt;" style="rounded=0;whiteSpace=wrap;html=1;align=left;" vertex="1" parent="lvfCB4eY2tcOJgBGcnWr-28">
          <mxGeometry x="18.5" y="328" width="187" height="70" as="geometry" />
        </mxCell>
        <mxCell id="lvfCB4eY2tcOJgBGcnWr-42" style="edgeStyle=orthogonalEdgeStyle;rounded=0;orthogonalLoop=1;jettySize=auto;html=1;entryX=0.5;entryY=0;entryDx=0;entryDy=0;" edge="1" parent="lvfCB4eY2tcOJgBGcnWr-28" source="lvfCB4eY2tcOJgBGcnWr-43" target="lvfCB4eY2tcOJgBGcnWr-46">
          <mxGeometry relative="1" as="geometry" />
        </mxCell>
        <mxCell id="lvfCB4eY2tcOJgBGcnWr-43" value="&lt;font face=&quot;Verdana&quot;&gt;&lt;span style=&quot;font-size: 8px;&quot;&gt;사내생산/외주생산 선정 프로세스&lt;/span&gt;&lt;/font&gt;" style="rounded=0;whiteSpace=wrap;html=1;align=left;" vertex="1" parent="lvfCB4eY2tcOJgBGcnWr-28">
          <mxGeometry x="29.25" y="70" width="163.5" height="70" as="geometry" />
        </mxCell>
        <mxCell id="lvfCB4eY2tcOJgBGcnWr-44" value="NO" style="edgeStyle=orthogonalEdgeStyle;rounded=0;orthogonalLoop=1;jettySize=auto;html=1;exitX=0;exitY=0.5;exitDx=0;exitDy=0;entryX=0;entryY=0.5;entryDx=0;entryDy=0;strokeColor=#FF0000;" edge="1" parent="lvfCB4eY2tcOJgBGcnWr-28" source="lvfCB4eY2tcOJgBGcnWr-30" target="lvfCB4eY2tcOJgBGcnWr-43">
          <mxGeometry x="0.5365" y="-5" relative="1" as="geometry">
            <mxPoint x="18" y="665" as="sourcePoint" />
            <mxPoint x="-27" y="150" as="targetPoint" />
            <Array as="points">
              <mxPoint x="9" y="660" />
              <mxPoint x="9" y="105" />
            </Array>
            <mxPoint as="offset" />
          </mxGeometry>
        </mxCell>
        <mxCell id="lvfCB4eY2tcOJgBGcnWr-45" value="YES" style="edgeStyle=orthogonalEdgeStyle;rounded=0;orthogonalLoop=1;jettySize=auto;html=1;entryX=0.5;entryY=0;entryDx=0;entryDy=0;strokeColor=#66B2FF;" edge="1" parent="lvfCB4eY2tcOJgBGcnWr-28" source="lvfCB4eY2tcOJgBGcnWr-46" target="lvfCB4eY2tcOJgBGcnWr-41">
          <mxGeometry relative="1" as="geometry" />
        </mxCell>
        <mxCell id="lvfCB4eY2tcOJgBGcnWr-46" value="외주생산?" style="rhombus;whiteSpace=wrap;html=1;rounded=0;shadow=0;labelBackgroundColor=none;strokeWidth=1;fontFamily=Verdana;fontSize=8;align=center;" vertex="1" parent="lvfCB4eY2tcOJgBGcnWr-28">
          <mxGeometry x="71" y="180" width="80" height="60" as="geometry" />
        </mxCell>
        <mxCell id="lvfCB4eY2tcOJgBGcnWr-47" value="NO" style="edgeStyle=orthogonalEdgeStyle;rounded=0;orthogonalLoop=1;jettySize=auto;html=1;entryX=1;entryY=0.5;entryDx=0;entryDy=0;strokeColor=#FF0000;exitX=1;exitY=0.5;exitDx=0;exitDy=0;" edge="1" parent="lvfCB4eY2tcOJgBGcnWr-28" source="lvfCB4eY2tcOJgBGcnWr-39" target="lvfCB4eY2tcOJgBGcnWr-43">
          <mxGeometry x="0.8045" relative="1" as="geometry">
            <mxPoint x="154" y="470" as="sourcePoint" />
            <mxPoint x="199.75" y="105" as="targetPoint" />
            <Array as="points">
              <mxPoint x="212" y="470" />
              <mxPoint x="212" y="105" />
            </Array>
            <mxPoint as="offset" />
          </mxGeometry>
        </mxCell>
        <mxCell id="lvfCB4eY2tcOJgBGcnWr-48" value="협력사" style="swimlane;html=1;startSize=20;" vertex="1" parent="lvfCB4eY2tcOJgBGcnWr-17">
          <mxGeometry x="1030" y="20" width="200" height="1030" as="geometry" />
        </mxCell>
        <mxCell id="lvfCB4eY2tcOJgBGcnWr-49" style="edgeStyle=orthogonalEdgeStyle;rounded=0;orthogonalLoop=1;jettySize=auto;html=1;entryX=0.5;entryY=0;entryDx=0;entryDy=0;" edge="1" parent="lvfCB4eY2tcOJgBGcnWr-48" source="lvfCB4eY2tcOJgBGcnWr-50" target="lvfCB4eY2tcOJgBGcnWr-51">
          <mxGeometry relative="1" as="geometry" />
        </mxCell>
        <mxCell id="lvfCB4eY2tcOJgBGcnWr-50" value="&lt;div style=&quot;font-size: 8px;&quot;&gt;&lt;font style=&quot;font-size: 8px;&quot; face=&quot;Verdana&quot;&gt;납품프로세스&lt;/font&gt;&lt;/div&gt;&lt;div style=&quot;font-size: 8px;&quot;&gt;&lt;font style=&quot;font-size: 8px;&quot; face=&quot;Verdana&quot;&gt;1. MES 박스라벨 생성&amp;nbsp;&lt;/font&gt;&lt;/div&gt;&lt;div style=&quot;font-size: 8px;&quot;&gt;&lt;font style=&quot;font-size: 8px;&quot; face=&quot;Verdana&quot;&gt;2. 납품등록&lt;/font&gt;&lt;/div&gt;&lt;div style=&quot;font-size: 8px;&quot;&gt;&lt;font style=&quot;font-size: 8px;&quot; face=&quot;Verdana&quot;&gt;3. 수주에 대해 납품확정&lt;/font&gt;&lt;/div&gt;&lt;div style=&quot;font-size: 8px;&quot;&gt;&lt;font style=&quot;font-size: 8px;&quot; face=&quot;Verdana&quot;&gt;4. 거래명세서 출력&lt;/font&gt;&lt;/div&gt;&lt;div style=&quot;font-size: 8px;&quot;&gt;&lt;font style=&quot;font-size: 8px;&quot; face=&quot;Verdana&quot;&gt;5. MES파렛팅 라벨 생성 및 부착&lt;/font&gt;&lt;/div&gt;" style="rounded=0;whiteSpace=wrap;html=1;align=left;" vertex="1" parent="lvfCB4eY2tcOJgBGcnWr-48">
          <mxGeometry x="26" y="150" width="140" height="70" as="geometry" />
        </mxCell>
        <mxCell id="lvfCB4eY2tcOJgBGcnWr-51" value="전표등록&lt;div&gt;오류 발생?&lt;/div&gt;" style="rhombus;whiteSpace=wrap;html=1;rounded=0;shadow=0;labelBackgroundColor=none;strokeWidth=1;fontFamily=Verdana;fontSize=8;align=center;" vertex="1" parent="lvfCB4eY2tcOJgBGcnWr-48">
          <mxGeometry x="56" y="428" width="80" height="60" as="geometry" />
        </mxCell>
        <mxCell id="lvfCB4eY2tcOJgBGcnWr-52" value="반송" style="rounded=1;whiteSpace=wrap;html=1;shadow=0;labelBackgroundColor=none;strokeWidth=1;fontFamily=Verdana;fontSize=8;align=center;verticalAlign=middle;" vertex="1" parent="lvfCB4eY2tcOJgBGcnWr-48">
          <mxGeometry x="30" y="918" width="100" height="60" as="geometry" />
        </mxCell>
        <mxCell id="lvfCB4eY2tcOJgBGcnWr-53" value="사출팀" style="swimlane;html=1;startSize=20;" vertex="1" parent="lvfCB4eY2tcOJgBGcnWr-17">
          <mxGeometry x="1230" y="20" width="220" height="1030" as="geometry" />
        </mxCell>
        <mxCell id="lvfCB4eY2tcOJgBGcnWr-54" value="" style="edgeStyle=orthogonalEdgeStyle;rounded=0;orthogonalLoop=1;jettySize=auto;html=1;" edge="1" parent="lvfCB4eY2tcOJgBGcnWr-53" source="lvfCB4eY2tcOJgBGcnWr-55" target="lvfCB4eY2tcOJgBGcnWr-57">
          <mxGeometry relative="1" as="geometry" />
        </mxCell>
        <mxCell id="lvfCB4eY2tcOJgBGcnWr-55" value="&lt;font style=&quot;font-size: 8px;&quot;&gt;사출팀 생산계획 수립 프로세스&lt;br&gt;1. 작업준비&amp;nbsp;&lt;br&gt;2. 원재료/부재료 요청&lt;br&gt;(사출팀에서 착색실에 요청)&lt;br&gt;3. 생산 및 실적등록&lt;br&gt;4. 이동요청 출력, 전표출력&lt;/font&gt;" style="rounded=0;whiteSpace=wrap;html=1;align=left;fontSize=11;fontFamily=Helvetica;" vertex="1" parent="lvfCB4eY2tcOJgBGcnWr-53">
          <mxGeometry x="40" y="220" width="140" height="80" as="geometry" />
        </mxCell>
        <mxCell id="lvfCB4eY2tcOJgBGcnWr-56" value="YES" style="edgeStyle=orthogonalEdgeStyle;rounded=0;orthogonalLoop=1;jettySize=auto;html=1;entryX=0.5;entryY=0;entryDx=0;entryDy=0;strokeColor=#66B2FF;" edge="1" parent="lvfCB4eY2tcOJgBGcnWr-53" source="lvfCB4eY2tcOJgBGcnWr-57" target="lvfCB4eY2tcOJgBGcnWr-58">
          <mxGeometry relative="1" as="geometry" />
        </mxCell>
        <mxCell id="lvfCB4eY2tcOJgBGcnWr-57" value="불량발생?" style="rhombus;whiteSpace=wrap;html=1;rounded=0;shadow=0;labelBackgroundColor=none;strokeWidth=1;fontFamily=Verdana;fontSize=8;align=center;" vertex="1" parent="lvfCB4eY2tcOJgBGcnWr-53">
          <mxGeometry x="70" y="476" width="80" height="60" as="geometry" />
        </mxCell>
        <mxCell id="lvfCB4eY2tcOJgBGcnWr-58" value="&lt;font style=&quot;font-size: 8px;&quot;&gt;수입검사 프로세스&lt;/font&gt;" style="rounded=0;whiteSpace=wrap;html=1;" vertex="1" parent="lvfCB4eY2tcOJgBGcnWr-53">
          <mxGeometry x="40" y="671" width="140" height="60" as="geometry" />
        </mxCell>
        <mxCell id="lvfCB4eY2tcOJgBGcnWr-59" value="수입검사" style="swimlane;html=1;startSize=20;" vertex="1" parent="lvfCB4eY2tcOJgBGcnWr-17">
          <mxGeometry x="1450" y="20" width="220" height="1030" as="geometry" />
        </mxCell>
        <mxCell id="lvfCB4eY2tcOJgBGcnWr-60" value="" style="edgeStyle=orthogonalEdgeStyle;rounded=0;orthogonalLoop=1;jettySize=auto;html=1;entryX=0.5;entryY=0;entryDx=0;entryDy=0;" edge="1" parent="lvfCB4eY2tcOJgBGcnWr-59" source="lvfCB4eY2tcOJgBGcnWr-61" target="lvfCB4eY2tcOJgBGcnWr-62">
          <mxGeometry relative="1" as="geometry">
            <mxPoint x="110" y="548" as="targetPoint" />
          </mxGeometry>
        </mxCell>
        <mxCell id="lvfCB4eY2tcOJgBGcnWr-61" value="&lt;font style=&quot;font-size: 8px;&quot;&gt;수입검사 프로세스&lt;/font&gt;" style="rounded=0;whiteSpace=wrap;html=1;" vertex="1" parent="lvfCB4eY2tcOJgBGcnWr-59">
          <mxGeometry x="40" y="527" width="140" height="60" as="geometry" />
        </mxCell>
        <mxCell id="lvfCB4eY2tcOJgBGcnWr-62" value="수입검사 통과" style="rhombus;whiteSpace=wrap;html=1;rounded=0;shadow=0;labelBackgroundColor=none;strokeWidth=1;fontFamily=Verdana;fontSize=8;align=center;" vertex="1" parent="lvfCB4eY2tcOJgBGcnWr-59">
          <mxGeometry x="70" y="617" width="80" height="60" as="geometry" />
        </mxCell>
        <mxCell id="lvfCB4eY2tcOJgBGcnWr-63" value="자재팀" style="swimlane;html=1;startSize=20;" vertex="1" parent="lvfCB4eY2tcOJgBGcnWr-17">
          <mxGeometry x="1670" y="20" width="210" height="1030" as="geometry" />
        </mxCell>
        <mxCell id="lvfCB4eY2tcOJgBGcnWr-64" value="&lt;div&gt;&lt;span style=&quot;background-color: initial;&quot;&gt;납품취소&lt;br&gt;&lt;/span&gt;(&lt;span style=&quot;background-color: initial;&quot;&gt;자재팀 or 조달파트에서 진행)&lt;/span&gt;&lt;/div&gt;" style="rounded=1;whiteSpace=wrap;html=1;shadow=0;labelBackgroundColor=none;strokeWidth=1;fontFamily=Verdana;fontSize=8;align=center;verticalAlign=middle;" vertex="1" parent="lvfCB4eY2tcOJgBGcnWr-63">
          <mxGeometry x="69" y="200" width="120" height="60" as="geometry" />
        </mxCell>
        <mxCell id="lvfCB4eY2tcOJgBGcnWr-65" value="&lt;div&gt;&lt;font face=&quot;Verdana&quot;&gt;&lt;span style=&quot;font-size: 8px;&quot;&gt;입고프로세스&lt;/span&gt;&lt;/font&gt;&lt;/div&gt;&lt;div&gt;&lt;font face=&quot;Verdana&quot;&gt;&lt;span style=&quot;font-size: 8px;&quot;&gt;1. 자동창고 입고&amp;nbsp;&lt;/span&gt;&lt;/font&gt;&lt;/div&gt;&lt;div&gt;&lt;font face=&quot;Verdana&quot;&gt;&lt;span style=&quot;font-size: 8px;&quot;&gt;2. 현장 직출고&amp;nbsp;&lt;/span&gt;&lt;/font&gt;&lt;/div&gt;&lt;div&gt;&lt;font face=&quot;Verdana&quot;&gt;&lt;span style=&quot;font-size: 8px;&quot;&gt;3. 협력사 외주출고&lt;/span&gt;&lt;/font&gt;&lt;/div&gt;" style="rounded=0;whiteSpace=wrap;html=1;align=left;" vertex="1" parent="lvfCB4eY2tcOJgBGcnWr-63">
          <mxGeometry x="59" y="498" width="140" height="60" as="geometry" />
        </mxCell>
        <mxCell id="lvfCB4eY2tcOJgBGcnWr-66" value="ㅁㅁ" style="swimlane;html=1;startSize=20;" vertex="1" parent="lvfCB4eY2tcOJgBGcnWr-17">
          <mxGeometry x="1880" y="20" width="210" height="1030" as="geometry" />
        </mxCell>
        <mxCell id="lvfCB4eY2tcOJgBGcnWr-67" value="Lane 6" style="swimlane;html=1;startSize=20;" vertex="1" parent="lvfCB4eY2tcOJgBGcnWr-17">
          <mxGeometry x="2090" y="20" width="250" height="1030" as="geometry" />
        </mxCell>
        <mxCell id="lvfCB4eY2tcOJgBGcnWr-68" value="" style="rounded=0;whiteSpace=wrap;html=1;" vertex="1" parent="lvfCB4eY2tcOJgBGcnWr-67">
          <mxGeometry x="10" y="958" width="140" height="60" as="geometry" />
        </mxCell>
        <mxCell id="lvfCB4eY2tcOJgBGcnWr-69" value="" style="rhombus;whiteSpace=wrap;html=1;rounded=0;shadow=0;labelBackgroundColor=none;strokeWidth=1;fontFamily=Verdana;fontSize=8;align=center;" vertex="1" parent="lvfCB4eY2tcOJgBGcnWr-67">
          <mxGeometry x="40" y="888" width="80" height="60" as="geometry" />
        </mxCell>
        <mxCell id="lvfCB4eY2tcOJgBGcnWr-70" value="YES" style="edgeStyle=orthogonalEdgeStyle;rounded=0;orthogonalLoop=1;jettySize=auto;html=1;entryX=0;entryY=0.5;entryDx=0;entryDy=0;exitX=1;exitY=0.5;exitDx=0;exitDy=0;strokeColor=#66B2FF;" edge="1" parent="lvfCB4eY2tcOJgBGcnWr-17" source="lvfCB4eY2tcOJgBGcnWr-51" target="lvfCB4eY2tcOJgBGcnWr-64">
          <mxGeometry x="0.7889" relative="1" as="geometry">
            <Array as="points">
              <mxPoint x="1689" y="478" />
              <mxPoint x="1689" y="250" />
            </Array>
            <mxPoint x="438" y="478" as="sourcePoint" />
            <mxPoint x="937" y="418" as="targetPoint" />
            <mxPoint as="offset" />
          </mxGeometry>
        </mxCell>
        <mxCell id="lvfCB4eY2tcOJgBGcnWr-71" value="YES" style="edgeStyle=orthogonalEdgeStyle;rounded=0;orthogonalLoop=1;jettySize=auto;html=1;entryX=0;entryY=0.5;entryDx=0;entryDy=0;strokeColor=#66B2FF;" edge="1" parent="lvfCB4eY2tcOJgBGcnWr-17" source="lvfCB4eY2tcOJgBGcnWr-62" target="lvfCB4eY2tcOJgBGcnWr-65">
          <mxGeometry x="0.5008" relative="1" as="geometry">
            <mxPoint x="570" y="538" as="targetPoint" />
            <Array as="points">
              <mxPoint x="1699" y="667" />
              <mxPoint x="1699" y="548" />
            </Array>
            <mxPoint as="offset" />
          </mxGeometry>
        </mxCell>
        <mxCell id="lvfCB4eY2tcOJgBGcnWr-72" value="" style="edgeStyle=orthogonalEdgeStyle;rounded=0;orthogonalLoop=1;jettySize=auto;html=1;entryX=0.5;entryY=0;entryDx=0;entryDy=0;exitX=0.5;exitY=0;exitDx=0;exitDy=0;" edge="1" parent="lvfCB4eY2tcOJgBGcnWr-17" source="lvfCB4eY2tcOJgBGcnWr-64" target="lvfCB4eY2tcOJgBGcnWr-50">
          <mxGeometry relative="1" as="geometry">
            <Array as="points">
              <mxPoint x="1139" y="120" />
              <mxPoint x="466" y="120" />
            </Array>
          </mxGeometry>
        </mxCell>
        <mxCell id="lvfCB4eY2tcOJgBGcnWr-73" value="YES" style="edgeStyle=orthogonalEdgeStyle;rounded=0;orthogonalLoop=1;jettySize=auto;html=1;entryX=0.5;entryY=1;entryDx=0;entryDy=0;exitX=0.5;exitY=1;exitDx=0;exitDy=0;strokeColor=#66B2FF;" edge="1" parent="lvfCB4eY2tcOJgBGcnWr-17" source="lvfCB4eY2tcOJgBGcnWr-37" target="lvfCB4eY2tcOJgBGcnWr-65">
          <mxGeometry x="0.8667" relative="1" as="geometry">
            <mxPoint x="210" y="1018" as="sourcePoint" />
            <mxPoint x="620" y="588" as="targetPoint" />
            <Array as="points">
              <mxPoint x="917" y="1040" />
              <mxPoint x="1799" y="1040" />
            </Array>
            <mxPoint as="offset" />
          </mxGeometry>
        </mxCell>
        <mxCell id="lvfCB4eY2tcOJgBGcnWr-74" value="NO" style="edgeStyle=orthogonalEdgeStyle;rounded=0;orthogonalLoop=1;jettySize=auto;html=1;entryX=0;entryY=0.5;entryDx=0;entryDy=0;exitX=1;exitY=0.5;exitDx=0;exitDy=0;strokeColor=#FF0000;" edge="1" parent="lvfCB4eY2tcOJgBGcnWr-17" source="lvfCB4eY2tcOJgBGcnWr-37" target="lvfCB4eY2tcOJgBGcnWr-52">
          <mxGeometry x="0.4286" relative="1" as="geometry">
            <mxPoint x="120" y="968" as="sourcePoint" />
            <mxPoint as="offset" />
          </mxGeometry>
        </mxCell>
        <mxCell id="lvfCB4eY2tcOJgBGcnWr-75" value="NO" style="edgeStyle=orthogonalEdgeStyle;rounded=0;orthogonalLoop=1;jettySize=auto;html=1;strokeColor=#FF0000;entryX=0;entryY=0.25;entryDx=0;entryDy=0;exitX=0.5;exitY=1;exitDx=0;exitDy=0;" edge="1" parent="lvfCB4eY2tcOJgBGcnWr-17" source="lvfCB4eY2tcOJgBGcnWr-51" target="lvfCB4eY2tcOJgBGcnWr-61">
          <mxGeometry x="0.9199" y="2" relative="1" as="geometry">
            <mxPoint x="459" y="510" as="sourcePoint" />
            <mxPoint x="400" y="548" as="targetPoint" />
            <Array as="points">
              <mxPoint x="1126" y="562" />
            </Array>
            <mxPoint as="offset" />
          </mxGeometry>
        </mxCell>
        <mxCell id="lvfCB4eY2tcOJgBGcnWr-76" value="" style="edgeStyle=orthogonalEdgeStyle;rounded=0;orthogonalLoop=1;jettySize=auto;html=1;entryX=0;entryY=0.75;entryDx=0;entryDy=0;exitX=1;exitY=0.5;exitDx=0;exitDy=0;" edge="1" parent="lvfCB4eY2tcOJgBGcnWr-17" source="lvfCB4eY2tcOJgBGcnWr-58" target="lvfCB4eY2tcOJgBGcnWr-61">
          <mxGeometry relative="1" as="geometry">
            <Array as="points">
              <mxPoint x="1469" y="721" />
              <mxPoint x="1469" y="592" />
            </Array>
          </mxGeometry>
        </mxCell>
        <mxCell id="lvfCB4eY2tcOJgBGcnWr-77" style="edgeStyle=orthogonalEdgeStyle;rounded=0;orthogonalLoop=1;jettySize=auto;html=1;exitX=1;exitY=0.5;exitDx=0;exitDy=0;entryX=0;entryY=0.5;entryDx=0;entryDy=0;" edge="1" parent="lvfCB4eY2tcOJgBGcnWr-17" source="lvfCB4eY2tcOJgBGcnWr-32" target="lvfCB4eY2tcOJgBGcnWr-50">
          <mxGeometry relative="1" as="geometry">
            <Array as="points">
              <mxPoint x="1039" y="763" />
              <mxPoint x="1039" y="205" />
            </Array>
          </mxGeometry>
        </mxCell>
        <mxCell id="lvfCB4eY2tcOJgBGcnWr-78" value="" style="edgeStyle=orthogonalEdgeStyle;rounded=0;orthogonalLoop=1;jettySize=auto;html=1;exitX=0.5;exitY=1;exitDx=0;exitDy=0;entryX=1;entryY=0.5;entryDx=0;entryDy=0;strokeColor=#FF0000;" edge="1" parent="lvfCB4eY2tcOJgBGcnWr-17" source="lvfCB4eY2tcOJgBGcnWr-62" target="lvfCB4eY2tcOJgBGcnWr-36">
          <mxGeometry relative="1" as="geometry">
            <mxPoint x="329" y="848" as="targetPoint" />
            <Array as="points">
              <mxPoint x="1559" y="848" />
            </Array>
            <mxPoint x="878" y="667" as="sourcePoint" />
          </mxGeometry>
        </mxCell>
        <mxCell id="lvfCB4eY2tcOJgBGcnWr-79" value="NO" style="edgeLabel;html=1;align=center;verticalAlign=middle;resizable=0;points=[];" vertex="1" connectable="0" parent="lvfCB4eY2tcOJgBGcnWr-78">
          <mxGeometry x="-0.4055" y="-4" relative="1" as="geometry">
            <mxPoint x="-482" y="4" as="offset" />
          </mxGeometry>
        </mxCell>
        <mxCell id="lvfCB4eY2tcOJgBGcnWr-80" value="NO" style="edgeStyle=orthogonalEdgeStyle;rounded=0;orthogonalLoop=1;jettySize=auto;html=1;entryX=0.5;entryY=0;entryDx=0;entryDy=0;strokeColor=#FF0000;exitX=1.027;exitY=0.503;exitDx=0;exitDy=0;exitPerimeter=0;" edge="1" parent="lvfCB4eY2tcOJgBGcnWr-17" source="lvfCB4eY2tcOJgBGcnWr-57" target="lvfCB4eY2tcOJgBGcnWr-61">
          <mxGeometry relative="1" as="geometry">
            <Array as="points">
              <mxPoint x="1560" y="526" />
            </Array>
            <mxPoint x="769" y="510" as="sourcePoint" />
            <mxPoint x="949" y="531" as="targetPoint" />
          </mxGeometry>
        </mxCell>
        <mxCell id="lvfCB4eY2tcOJgBGcnWr-81" value="NO" style="edgeStyle=orthogonalEdgeStyle;rounded=0;orthogonalLoop=1;jettySize=auto;html=1;entryX=1;entryY=0.5;entryDx=0;entryDy=0;strokeColor=#FF0000;" edge="1" parent="lvfCB4eY2tcOJgBGcnWr-17" source="lvfCB4eY2tcOJgBGcnWr-46" target="lvfCB4eY2tcOJgBGcnWr-26">
          <mxGeometry relative="1" as="geometry" />
        </mxCell>
        <mxCell id="lvfCB4eY2tcOJgBGcnWr-82" value="YES" style="edgeStyle=orthogonalEdgeStyle;rounded=0;orthogonalLoop=1;jettySize=auto;html=1;strokeColor=#66B2FF;" edge="1" parent="lvfCB4eY2tcOJgBGcnWr-17" source="lvfCB4eY2tcOJgBGcnWr-27" target="lvfCB4eY2tcOJgBGcnWr-23">
          <mxGeometry relative="1" as="geometry" />
        </mxCell>
        <mxCell id="lvfCB4eY2tcOJgBGcnWr-83" value="NO" style="edgeStyle=orthogonalEdgeStyle;rounded=0;orthogonalLoop=1;jettySize=auto;html=1;exitX=0.5;exitY=1;exitDx=0;exitDy=0;entryX=1;entryY=0.5;entryDx=0;entryDy=0;strokeColor=#FF0000;" edge="1" parent="lvfCB4eY2tcOJgBGcnWr-17" source="lvfCB4eY2tcOJgBGcnWr-27" target="lvfCB4eY2tcOJgBGcnWr-21">
          <mxGeometry relative="1" as="geometry">
            <mxPoint x="700.0000000000005" y="530" as="targetPoint" />
          </mxGeometry>
        </mxCell>
        <mxCell id="lvfCB4eY2tcOJgBGcnWr-84" value="" style="rounded=0;whiteSpace=wrap;html=1;" vertex="1" parent="1">
          <mxGeometry x="-490" y="690" width="140" height="60" as="geometry" />
        </mxCell>
        <mxCell id="lvfCB4eY2tcOJgBGcnWr-85" value="" style="rounded=0;whiteSpace=wrap;html=1;" vertex="1" parent="1">
          <mxGeometry x="350" y="1130" width="140" height="60" as="geometry" />
        </mxCell>
      </root>
    </mxGraphModel>
  </diagram>
</mxfile>
